<mxfile host="app.diagrams.net" agent="Mozilla/5.0 (Windows NT 10.0; Win64; x64) AppleWebKit/537.36 (KHTML, like Gecko) Chrome/128.0.0.0 Safari/537.36" version="24.7.8">
  <diagram name="Page-1" id="ff44883e-f642-bcb2-894b-16b3d25a3f0b">
    <mxGraphModel dx="2206" dy="2427" grid="1" gridSize="10" guides="1" tooltips="1" connect="1" arrows="1" fold="1" page="1" pageScale="1.5" pageWidth="1169" pageHeight="826" background="none" math="0" shadow="0">
      <root>
        <mxCell id="0" style=";html=1;" />
        <mxCell id="1" style=";html=1;" parent="0" />
        <mxCell id="iIViWj5kwo_5ftV5tEHs-10" style="edgeStyle=none;curved=1;rounded=0;orthogonalLoop=1;jettySize=auto;html=1;exitX=1;exitY=0.5;exitDx=0;exitDy=0;fontSize=12;startSize=8;endSize=8;" parent="1" source="f0bcc99304e6f5a-2" edge="1">
          <mxGeometry relative="1" as="geometry">
            <mxPoint x="576.12" y="280.4117647058823" as="targetPoint" />
          </mxGeometry>
        </mxCell>
        <mxCell id="iIViWj5kwo_5ftV5tEHs-38" value="&lt;font style=&quot;font-size: 20px;&quot;&gt;z&lt;/font&gt;" style="edgeLabel;html=1;align=center;verticalAlign=middle;resizable=0;points=[];fontSize=12;" parent="iIViWj5kwo_5ftV5tEHs-10" vertex="1" connectable="0">
          <mxGeometry x="-0.4769" y="3" relative="1" as="geometry">
            <mxPoint x="9" y="-17" as="offset" />
          </mxGeometry>
        </mxCell>
        <mxCell id="f0bcc99304e6f5a-2" value="q1" style="ellipse;whiteSpace=wrap;html=1;rounded=0;shadow=1;strokeColor=#666666;strokeWidth=1;fontSize=30;align=center;fillColor=#f5f5f5;" parent="1" vertex="1">
          <mxGeometry x="340" y="240" width="80" height="80" as="geometry" />
        </mxCell>
        <mxCell id="iIViWj5kwo_5ftV5tEHs-1" value="" style="edgeStyle=none;orthogonalLoop=1;jettySize=auto;html=1;rounded=0;fontSize=12;startSize=8;endSize=8;curved=1;entryX=0;entryY=0.5;entryDx=0;entryDy=0;" parent="1" target="iIViWj5kwo_5ftV5tEHs-2" edge="1">
          <mxGeometry width="140" relative="1" as="geometry">
            <mxPoint y="580" as="sourcePoint" />
            <mxPoint x="40" y="580" as="targetPoint" />
            <Array as="points" />
          </mxGeometry>
        </mxCell>
        <mxCell id="iIViWj5kwo_5ftV5tEHs-6" style="edgeStyle=none;curved=0;rounded=0;orthogonalLoop=1;jettySize=auto;html=1;entryX=0;entryY=0.5;entryDx=0;entryDy=0;fontSize=12;startSize=8;endSize=8;" parent="1" source="iIViWj5kwo_5ftV5tEHs-2" target="f0bcc99304e6f5a-2" edge="1">
          <mxGeometry relative="1" as="geometry">
            <Array as="points">
              <mxPoint x="200" y="580" />
              <mxPoint x="200" y="280" />
            </Array>
          </mxGeometry>
        </mxCell>
        <mxCell id="iIViWj5kwo_5ftV5tEHs-8" value="&lt;font style=&quot;font-size: 20px;&quot;&gt;w&lt;/font&gt;" style="edgeLabel;html=1;align=center;verticalAlign=middle;resizable=0;points=[];fontSize=12;rotation=0;" parent="iIViWj5kwo_5ftV5tEHs-6" vertex="1" connectable="0">
          <mxGeometry x="0.7841" y="2" relative="1" as="geometry">
            <mxPoint x="-16" y="-18" as="offset" />
          </mxGeometry>
        </mxCell>
        <mxCell id="iIViWj5kwo_5ftV5tEHs-7" style="edgeStyle=none;curved=0;rounded=0;orthogonalLoop=1;jettySize=auto;html=1;exitX=1;exitY=0.5;exitDx=0;exitDy=0;entryX=0;entryY=0.5;entryDx=0;entryDy=0;fontSize=12;startSize=8;endSize=8;" parent="1" source="iIViWj5kwo_5ftV5tEHs-2" target="iIViWj5kwo_5ftV5tEHs-3" edge="1">
          <mxGeometry relative="1" as="geometry">
            <Array as="points">
              <mxPoint x="200" y="580" />
              <mxPoint x="200" y="870" />
            </Array>
          </mxGeometry>
        </mxCell>
        <mxCell id="iIViWj5kwo_5ftV5tEHs-9" value="&lt;span style=&quot;font-size: 20px;&quot;&gt;z&lt;/span&gt;" style="edgeLabel;html=1;align=center;verticalAlign=middle;resizable=0;points=[];fontSize=12;" parent="iIViWj5kwo_5ftV5tEHs-7" vertex="1" connectable="0">
          <mxGeometry x="0.7841" relative="1" as="geometry">
            <mxPoint y="-20" as="offset" />
          </mxGeometry>
        </mxCell>
        <mxCell id="8PTE7EbwGj5WyuGKVo0b-9" style="edgeStyle=orthogonalEdgeStyle;rounded=0;orthogonalLoop=1;jettySize=auto;html=1;entryX=0;entryY=0.5;entryDx=0;entryDy=0;" edge="1" parent="1" source="iIViWj5kwo_5ftV5tEHs-2" target="8PTE7EbwGj5WyuGKVo0b-4">
          <mxGeometry relative="1" as="geometry" />
        </mxCell>
        <mxCell id="iIViWj5kwo_5ftV5tEHs-2" value="q0" style="ellipse;whiteSpace=wrap;html=1;rounded=0;shadow=1;strokeColor=#666666;strokeWidth=1;fontSize=30;align=center;fillColor=#f5f5f5;" parent="1" vertex="1">
          <mxGeometry x="60" y="540" width="80" height="80" as="geometry" />
        </mxCell>
        <mxCell id="iIViWj5kwo_5ftV5tEHs-29" value="" style="edgeStyle=none;curved=1;rounded=0;orthogonalLoop=1;jettySize=auto;html=1;fontSize=12;startSize=8;endSize=8;" parent="1" source="iIViWj5kwo_5ftV5tEHs-3" target="iIViWj5kwo_5ftV5tEHs-27" edge="1">
          <mxGeometry relative="1" as="geometry" />
        </mxCell>
        <mxCell id="iIViWj5kwo_5ftV5tEHs-40" value="&lt;font style=&quot;font-size: 20px;&quot;&gt;w&lt;/font&gt;" style="edgeLabel;html=1;align=center;verticalAlign=middle;resizable=0;points=[];fontSize=12;" parent="iIViWj5kwo_5ftV5tEHs-29" vertex="1" connectable="0">
          <mxGeometry x="-0.0833" y="2" relative="1" as="geometry">
            <mxPoint y="-18" as="offset" />
          </mxGeometry>
        </mxCell>
        <mxCell id="iIViWj5kwo_5ftV5tEHs-3" value="q7" style="ellipse;whiteSpace=wrap;html=1;rounded=0;shadow=1;strokeColor=#666666;strokeWidth=1;fontSize=30;align=center;fillColor=#f5f5f5;" parent="1" vertex="1">
          <mxGeometry x="314.12" y="830" width="80" height="80" as="geometry" />
        </mxCell>
        <mxCell id="iIViWj5kwo_5ftV5tEHs-23" style="edgeStyle=none;curved=1;rounded=0;orthogonalLoop=1;jettySize=auto;html=1;entryX=0;entryY=0.5;entryDx=0;entryDy=0;fontSize=12;startSize=8;endSize=8;" parent="1" source="iIViWj5kwo_5ftV5tEHs-11" target="iIViWj5kwo_5ftV5tEHs-20" edge="1">
          <mxGeometry relative="1" as="geometry" />
        </mxCell>
        <mxCell id="iIViWj5kwo_5ftV5tEHs-39" value="&lt;font style=&quot;font-size: 20px;&quot;&gt;w&lt;/font&gt;" style="edgeLabel;html=1;align=center;verticalAlign=middle;resizable=0;points=[];fontSize=12;" parent="iIViWj5kwo_5ftV5tEHs-23" vertex="1" connectable="0">
          <mxGeometry x="-0.0833" y="3" relative="1" as="geometry">
            <mxPoint y="-17" as="offset" />
          </mxGeometry>
        </mxCell>
        <mxCell id="iIViWj5kwo_5ftV5tEHs-11" value="q2" style="ellipse;whiteSpace=wrap;html=1;rounded=0;shadow=1;strokeColor=#666666;strokeWidth=1;fontSize=30;align=center;fillColor=#f5f5f5;" parent="1" vertex="1">
          <mxGeometry x="530" y="240" width="80" height="80" as="geometry" />
        </mxCell>
        <mxCell id="8PTE7EbwGj5WyuGKVo0b-12" value="" style="edgeStyle=orthogonalEdgeStyle;rounded=0;orthogonalLoop=1;jettySize=auto;html=1;" edge="1" parent="1" source="iIViWj5kwo_5ftV5tEHs-20" target="8PTE7EbwGj5WyuGKVo0b-11">
          <mxGeometry relative="1" as="geometry" />
        </mxCell>
        <mxCell id="8PTE7EbwGj5WyuGKVo0b-21" style="edgeStyle=orthogonalEdgeStyle;rounded=0;orthogonalLoop=1;jettySize=auto;html=1;entryX=0;entryY=0.5;entryDx=0;entryDy=0;" edge="1" parent="1" source="iIViWj5kwo_5ftV5tEHs-20" target="8PTE7EbwGj5WyuGKVo0b-20">
          <mxGeometry relative="1" as="geometry">
            <Array as="points">
              <mxPoint x="760" y="90" />
            </Array>
          </mxGeometry>
        </mxCell>
        <mxCell id="8PTE7EbwGj5WyuGKVo0b-23" value="" style="edgeStyle=orthogonalEdgeStyle;rounded=0;orthogonalLoop=1;jettySize=auto;html=1;" edge="1" parent="1" source="iIViWj5kwo_5ftV5tEHs-20" target="8PTE7EbwGj5WyuGKVo0b-22">
          <mxGeometry relative="1" as="geometry">
            <Array as="points">
              <mxPoint x="760" y="90" />
            </Array>
          </mxGeometry>
        </mxCell>
        <mxCell id="iIViWj5kwo_5ftV5tEHs-20" value="q3" style="ellipse;whiteSpace=wrap;html=1;rounded=0;shadow=1;strokeColor=#878787;strokeWidth=1;fontSize=30;align=center;fillColor=#FCFCFC;" parent="1" vertex="1">
          <mxGeometry x="720" y="240" width="80" height="80" as="geometry" />
        </mxCell>
        <mxCell id="iIViWj5kwo_5ftV5tEHs-31" value="" style="edgeStyle=none;curved=1;rounded=0;orthogonalLoop=1;jettySize=auto;html=1;fontSize=12;startSize=8;endSize=8;" parent="1" source="iIViWj5kwo_5ftV5tEHs-27" target="iIViWj5kwo_5ftV5tEHs-30" edge="1">
          <mxGeometry relative="1" as="geometry" />
        </mxCell>
        <mxCell id="iIViWj5kwo_5ftV5tEHs-41" value="&lt;span style=&quot;font-size: 20px;&quot;&gt;x&lt;/span&gt;" style="edgeLabel;html=1;align=center;verticalAlign=middle;resizable=0;points=[];fontSize=12;" parent="iIViWj5kwo_5ftV5tEHs-31" vertex="1" connectable="0">
          <mxGeometry x="-0.1667" relative="1" as="geometry">
            <mxPoint y="-20" as="offset" />
          </mxGeometry>
        </mxCell>
        <mxCell id="iIViWj5kwo_5ftV5tEHs-27" value="q8" style="ellipse;whiteSpace=wrap;html=1;rounded=0;shadow=1;strokeColor=#666666;strokeWidth=1;fontSize=30;align=center;fillColor=#f5f5f5;" parent="1" vertex="1">
          <mxGeometry x="530" y="830" width="80" height="80" as="geometry" />
        </mxCell>
        <mxCell id="8PTE7EbwGj5WyuGKVo0b-14" style="edgeStyle=orthogonalEdgeStyle;rounded=0;orthogonalLoop=1;jettySize=auto;html=1;entryX=0.5;entryY=1;entryDx=0;entryDy=0;" edge="1" parent="1" source="iIViWj5kwo_5ftV5tEHs-30" target="8PTE7EbwGj5WyuGKVo0b-11">
          <mxGeometry relative="1" as="geometry" />
        </mxCell>
        <mxCell id="iIViWj5kwo_5ftV5tEHs-30" value="q9" style="ellipse;whiteSpace=wrap;html=1;rounded=0;shadow=1;strokeColor=#666666;strokeWidth=1;fontSize=30;align=center;fillColor=#F0F0F0;" parent="1" vertex="1">
          <mxGeometry x="720" y="830" width="80" height="80" as="geometry" />
        </mxCell>
        <mxCell id="EqjX6n_9IyycGUnKyrME-22" value="M = ({a, b, c, d}, {q0, q1, q2, q3, q4, q5, q6, q7, q8, q9, q10, q11, q12, q13, q14, q15, q16}, δ, q0, {q13, q16})" style="text;whiteSpace=wrap;fontSize=45;" parent="1" vertex="1">
          <mxGeometry y="-140" width="3580" height="30" as="geometry" />
        </mxCell>
        <mxCell id="8PTE7EbwGj5WyuGKVo0b-2" value="" style="edgeStyle=none;curved=1;rounded=0;orthogonalLoop=1;jettySize=auto;html=1;fontSize=12;startSize=8;endSize=8;" edge="1" parent="1" source="8PTE7EbwGj5WyuGKVo0b-4" target="8PTE7EbwGj5WyuGKVo0b-7">
          <mxGeometry relative="1" as="geometry" />
        </mxCell>
        <mxCell id="8PTE7EbwGj5WyuGKVo0b-3" value="&lt;font style=&quot;font-size: 20px;&quot;&gt;x&lt;/font&gt;" style="edgeLabel;html=1;align=center;verticalAlign=middle;resizable=0;points=[];fontSize=12;" vertex="1" connectable="0" parent="8PTE7EbwGj5WyuGKVo0b-2">
          <mxGeometry x="-0.0833" y="2" relative="1" as="geometry">
            <mxPoint y="-18" as="offset" />
          </mxGeometry>
        </mxCell>
        <mxCell id="8PTE7EbwGj5WyuGKVo0b-4" value="q4" style="ellipse;whiteSpace=wrap;html=1;rounded=0;shadow=1;strokeColor=#666666;strokeWidth=1;fontSize=30;align=center;fillColor=#f5f5f5;" vertex="1" parent="1">
          <mxGeometry x="314.12" y="540" width="80" height="80" as="geometry" />
        </mxCell>
        <mxCell id="8PTE7EbwGj5WyuGKVo0b-5" value="" style="edgeStyle=none;curved=1;rounded=0;orthogonalLoop=1;jettySize=auto;html=1;fontSize=12;startSize=8;endSize=8;" edge="1" parent="1" source="8PTE7EbwGj5WyuGKVo0b-7" target="8PTE7EbwGj5WyuGKVo0b-8">
          <mxGeometry relative="1" as="geometry" />
        </mxCell>
        <mxCell id="8PTE7EbwGj5WyuGKVo0b-6" value="&lt;font style=&quot;font-size: 20px;&quot;&gt;w&lt;/font&gt;" style="edgeLabel;html=1;align=center;verticalAlign=middle;resizable=0;points=[];fontSize=12;" vertex="1" connectable="0" parent="8PTE7EbwGj5WyuGKVo0b-5">
          <mxGeometry x="-0.1667" relative="1" as="geometry">
            <mxPoint y="-20" as="offset" />
          </mxGeometry>
        </mxCell>
        <mxCell id="8PTE7EbwGj5WyuGKVo0b-7" value="q5" style="ellipse;whiteSpace=wrap;html=1;rounded=0;shadow=1;strokeColor=#666666;strokeWidth=1;fontSize=30;align=center;fillColor=#f5f5f5;" vertex="1" parent="1">
          <mxGeometry x="530" y="539.5" width="80" height="80" as="geometry" />
        </mxCell>
        <mxCell id="8PTE7EbwGj5WyuGKVo0b-13" style="edgeStyle=orthogonalEdgeStyle;rounded=0;orthogonalLoop=1;jettySize=auto;html=1;entryX=0;entryY=0.5;entryDx=0;entryDy=0;" edge="1" parent="1" source="8PTE7EbwGj5WyuGKVo0b-8" target="8PTE7EbwGj5WyuGKVo0b-11">
          <mxGeometry relative="1" as="geometry" />
        </mxCell>
        <mxCell id="8PTE7EbwGj5WyuGKVo0b-27" value="" style="edgeStyle=orthogonalEdgeStyle;rounded=0;orthogonalLoop=1;jettySize=auto;html=1;" edge="1" parent="1" source="8PTE7EbwGj5WyuGKVo0b-8" target="8PTE7EbwGj5WyuGKVo0b-26">
          <mxGeometry relative="1" as="geometry">
            <Array as="points">
              <mxPoint x="760" y="440" />
            </Array>
          </mxGeometry>
        </mxCell>
        <mxCell id="8PTE7EbwGj5WyuGKVo0b-29" style="edgeStyle=orthogonalEdgeStyle;rounded=0;orthogonalLoop=1;jettySize=auto;html=1;entryX=0;entryY=0.5;entryDx=0;entryDy=0;" edge="1" parent="1" source="8PTE7EbwGj5WyuGKVo0b-8" target="8PTE7EbwGj5WyuGKVo0b-28">
          <mxGeometry relative="1" as="geometry">
            <Array as="points">
              <mxPoint x="760" y="440" />
            </Array>
          </mxGeometry>
        </mxCell>
        <mxCell id="8PTE7EbwGj5WyuGKVo0b-8" value="q6" style="ellipse;whiteSpace=wrap;html=1;rounded=0;shadow=1;strokeColor=#666666;strokeWidth=1;fontSize=30;align=center;fillColor=#FFFFFF;" vertex="1" parent="1">
          <mxGeometry x="720" y="540" width="80" height="80" as="geometry" />
        </mxCell>
        <mxCell id="8PTE7EbwGj5WyuGKVo0b-11" value="q10" style="ellipse;whiteSpace=wrap;html=1;fontSize=30;fillColor=#FCFCFC;strokeColor=#878787;rounded=0;shadow=1;strokeWidth=1;" vertex="1" parent="1">
          <mxGeometry x="910" y="540" width="80" height="80" as="geometry" />
        </mxCell>
        <mxCell id="8PTE7EbwGj5WyuGKVo0b-15" value="&lt;font style=&quot;font-size: 20px;&quot;&gt;z&lt;/font&gt;" style="edgeLabel;html=1;align=center;verticalAlign=middle;resizable=0;points=[];fontSize=12;" vertex="1" connectable="0" parent="1">
          <mxGeometry x="720" y="70" as="geometry">
            <mxPoint y="-2" as="offset" />
          </mxGeometry>
        </mxCell>
        <mxCell id="8PTE7EbwGj5WyuGKVo0b-16" value="&lt;font style=&quot;font-size: 20px;&quot;&gt;y&lt;/font&gt;" style="edgeLabel;html=1;align=center;verticalAlign=middle;resizable=0;points=[];fontSize=12;rotation=0;" vertex="1" connectable="0" parent="1">
          <mxGeometry x="260.0042857142858" y="560" as="geometry">
            <mxPoint x="-4" y="-4" as="offset" />
          </mxGeometry>
        </mxCell>
        <mxCell id="8PTE7EbwGj5WyuGKVo0b-17" value="&lt;font style=&quot;font-size: 20px;&quot;&gt;z&lt;/font&gt;" style="edgeLabel;html=1;align=center;verticalAlign=middle;resizable=0;points=[];fontSize=12;" vertex="1" connectable="0" parent="1">
          <mxGeometry x="860.0042857142857" y="560" as="geometry" />
        </mxCell>
        <mxCell id="8PTE7EbwGj5WyuGKVo0b-18" value="&lt;span style=&quot;font-size: 20px;&quot;&gt;y&lt;/span&gt;" style="edgeLabel;html=1;align=center;verticalAlign=middle;resizable=0;points=[];fontSize=12;" vertex="1" connectable="0" parent="1">
          <mxGeometry x="860.0033333333334" y="850" as="geometry" />
        </mxCell>
        <mxCell id="8PTE7EbwGj5WyuGKVo0b-20" value="q19" style="ellipse;whiteSpace=wrap;html=1;rounded=0;shadow=1;strokeColor=#878787;strokeWidth=1;fontSize=30;align=center;fillColor=#FCFCFC;" vertex="1" parent="1">
          <mxGeometry x="850" y="50" width="80" height="80" as="geometry" />
        </mxCell>
        <mxCell id="8PTE7EbwGj5WyuGKVo0b-22" value="q12" style="ellipse;whiteSpace=wrap;html=1;fontSize=30;fillColor=#FCFCFC;strokeColor=#878787;rounded=0;shadow=1;strokeWidth=1;" vertex="1" parent="1">
          <mxGeometry x="600" y="50" width="80" height="80" as="geometry" />
        </mxCell>
        <mxCell id="8PTE7EbwGj5WyuGKVo0b-24" value="&lt;font style=&quot;font-size: 20px;&quot;&gt;z&lt;/font&gt;" style="edgeLabel;html=1;align=center;verticalAlign=middle;resizable=0;points=[];fontSize=12;" vertex="1" connectable="0" parent="1">
          <mxGeometry x="800" y="70" as="geometry">
            <mxPoint y="-2" as="offset" />
          </mxGeometry>
        </mxCell>
        <mxCell id="8PTE7EbwGj5WyuGKVo0b-25" value="&lt;font style=&quot;font-size: 20px;&quot;&gt;z&lt;/font&gt;" style="edgeLabel;html=1;align=center;verticalAlign=middle;resizable=0;points=[];fontSize=12;" vertex="1" connectable="0" parent="1">
          <mxGeometry x="877" y="260" as="geometry">
            <mxPoint y="-2" as="offset" />
          </mxGeometry>
        </mxCell>
        <mxCell id="8PTE7EbwGj5WyuGKVo0b-26" value="q12" style="ellipse;whiteSpace=wrap;html=1;fontSize=30;fillColor=#FFFFFF;strokeColor=#666666;rounded=0;shadow=1;strokeWidth=1;" vertex="1" parent="1">
          <mxGeometry x="590" y="400" width="80" height="80" as="geometry" />
        </mxCell>
        <mxCell id="8PTE7EbwGj5WyuGKVo0b-28" value="q19" style="ellipse;whiteSpace=wrap;html=1;fontSize=30;fillColor=#FFFFFF;strokeColor=#666666;rounded=0;shadow=1;strokeWidth=1;" vertex="1" parent="1">
          <mxGeometry x="830" y="400" width="80" height="80" as="geometry" />
        </mxCell>
        <mxCell id="8PTE7EbwGj5WyuGKVo0b-30" value="&lt;font style=&quot;font-size: 20px;&quot;&gt;z&lt;/font&gt;" style="edgeLabel;html=1;align=center;verticalAlign=middle;resizable=0;points=[];fontSize=12;" vertex="1" connectable="0" parent="1">
          <mxGeometry x="710" y="420" as="geometry">
            <mxPoint y="-2" as="offset" />
          </mxGeometry>
        </mxCell>
        <mxCell id="8PTE7EbwGj5WyuGKVo0b-31" value="&lt;font style=&quot;font-size: 20px;&quot;&gt;z&lt;/font&gt;" style="edgeLabel;html=1;align=center;verticalAlign=middle;resizable=0;points=[];fontSize=12;" vertex="1" connectable="0" parent="1">
          <mxGeometry x="800" y="420" as="geometry">
            <mxPoint y="-2" as="offset" />
          </mxGeometry>
        </mxCell>
        <mxCell id="8PTE7EbwGj5WyuGKVo0b-78" style="edgeStyle=none;curved=1;rounded=0;orthogonalLoop=1;jettySize=auto;html=1;exitX=1;exitY=0.5;exitDx=0;exitDy=0;fontSize=12;startSize=8;endSize=8;" edge="1" parent="1" source="8PTE7EbwGj5WyuGKVo0b-80">
          <mxGeometry relative="1" as="geometry">
            <mxPoint x="1646.12" y="270.4117647058823" as="targetPoint" />
          </mxGeometry>
        </mxCell>
        <mxCell id="8PTE7EbwGj5WyuGKVo0b-79" value="&lt;font style=&quot;font-size: 20px;&quot;&gt;z&lt;/font&gt;" style="edgeLabel;html=1;align=center;verticalAlign=middle;resizable=0;points=[];fontSize=12;" vertex="1" connectable="0" parent="8PTE7EbwGj5WyuGKVo0b-78">
          <mxGeometry x="-0.4769" y="3" relative="1" as="geometry">
            <mxPoint x="9" y="-17" as="offset" />
          </mxGeometry>
        </mxCell>
        <mxCell id="8PTE7EbwGj5WyuGKVo0b-80" value="q11" style="ellipse;whiteSpace=wrap;html=1;rounded=0;shadow=1;strokeColor=#666666;strokeWidth=1;fontSize=30;align=center;fillColor=#f5f5f5;" vertex="1" parent="1">
          <mxGeometry x="1410" y="230" width="80" height="80" as="geometry" />
        </mxCell>
        <mxCell id="8PTE7EbwGj5WyuGKVo0b-82" style="edgeStyle=none;curved=0;rounded=0;orthogonalLoop=1;jettySize=auto;html=1;entryX=0;entryY=0.5;entryDx=0;entryDy=0;fontSize=12;startSize=8;endSize=8;" edge="1" parent="1" source="8PTE7EbwGj5WyuGKVo0b-87" target="8PTE7EbwGj5WyuGKVo0b-80">
          <mxGeometry relative="1" as="geometry">
            <Array as="points">
              <mxPoint x="1270" y="570" />
              <mxPoint x="1270" y="270" />
            </Array>
          </mxGeometry>
        </mxCell>
        <mxCell id="8PTE7EbwGj5WyuGKVo0b-83" value="&lt;font style=&quot;font-size: 20px;&quot;&gt;w&lt;/font&gt;" style="edgeLabel;html=1;align=center;verticalAlign=middle;resizable=0;points=[];fontSize=12;rotation=0;" vertex="1" connectable="0" parent="8PTE7EbwGj5WyuGKVo0b-82">
          <mxGeometry x="0.7841" y="2" relative="1" as="geometry">
            <mxPoint x="-16" y="-18" as="offset" />
          </mxGeometry>
        </mxCell>
        <mxCell id="8PTE7EbwGj5WyuGKVo0b-84" style="edgeStyle=none;curved=0;rounded=0;orthogonalLoop=1;jettySize=auto;html=1;exitX=1;exitY=0.5;exitDx=0;exitDy=0;entryX=0;entryY=0.5;entryDx=0;entryDy=0;fontSize=12;startSize=8;endSize=8;" edge="1" parent="1" source="8PTE7EbwGj5WyuGKVo0b-87" target="8PTE7EbwGj5WyuGKVo0b-90">
          <mxGeometry relative="1" as="geometry">
            <Array as="points">
              <mxPoint x="1270" y="570" />
              <mxPoint x="1270" y="860" />
            </Array>
          </mxGeometry>
        </mxCell>
        <mxCell id="8PTE7EbwGj5WyuGKVo0b-85" value="&lt;span style=&quot;font-size: 20px;&quot;&gt;z&lt;/span&gt;" style="edgeLabel;html=1;align=center;verticalAlign=middle;resizable=0;points=[];fontSize=12;" vertex="1" connectable="0" parent="8PTE7EbwGj5WyuGKVo0b-84">
          <mxGeometry x="0.7841" relative="1" as="geometry">
            <mxPoint y="-20" as="offset" />
          </mxGeometry>
        </mxCell>
        <mxCell id="8PTE7EbwGj5WyuGKVo0b-86" style="edgeStyle=orthogonalEdgeStyle;rounded=0;orthogonalLoop=1;jettySize=auto;html=1;entryX=0;entryY=0.5;entryDx=0;entryDy=0;" edge="1" parent="1" source="8PTE7EbwGj5WyuGKVo0b-87" target="8PTE7EbwGj5WyuGKVo0b-105">
          <mxGeometry relative="1" as="geometry" />
        </mxCell>
        <mxCell id="8PTE7EbwGj5WyuGKVo0b-87" value="q10" style="ellipse;whiteSpace=wrap;html=1;rounded=0;shadow=1;strokeColor=#666666;strokeWidth=1;fontSize=30;align=center;fillColor=#f5f5f5;" vertex="1" parent="1">
          <mxGeometry x="1130" y="530" width="80" height="80" as="geometry" />
        </mxCell>
        <mxCell id="8PTE7EbwGj5WyuGKVo0b-88" value="" style="edgeStyle=none;curved=1;rounded=0;orthogonalLoop=1;jettySize=auto;html=1;fontSize=12;startSize=8;endSize=8;" edge="1" parent="1" source="8PTE7EbwGj5WyuGKVo0b-90" target="8PTE7EbwGj5WyuGKVo0b-100">
          <mxGeometry relative="1" as="geometry" />
        </mxCell>
        <mxCell id="8PTE7EbwGj5WyuGKVo0b-89" value="&lt;font style=&quot;font-size: 20px;&quot;&gt;w&lt;/font&gt;" style="edgeLabel;html=1;align=center;verticalAlign=middle;resizable=0;points=[];fontSize=12;" vertex="1" connectable="0" parent="8PTE7EbwGj5WyuGKVo0b-88">
          <mxGeometry x="-0.0833" y="2" relative="1" as="geometry">
            <mxPoint y="-18" as="offset" />
          </mxGeometry>
        </mxCell>
        <mxCell id="8PTE7EbwGj5WyuGKVo0b-90" value="q7" style="ellipse;whiteSpace=wrap;html=1;rounded=0;shadow=1;strokeColor=#666666;strokeWidth=1;fontSize=30;align=center;fillColor=#f5f5f5;" vertex="1" parent="1">
          <mxGeometry x="1384.12" y="820" width="80" height="80" as="geometry" />
        </mxCell>
        <mxCell id="8PTE7EbwGj5WyuGKVo0b-91" style="edgeStyle=none;curved=1;rounded=0;orthogonalLoop=1;jettySize=auto;html=1;entryX=0;entryY=0.5;entryDx=0;entryDy=0;fontSize=12;startSize=8;endSize=8;" edge="1" parent="1" source="8PTE7EbwGj5WyuGKVo0b-93" target="8PTE7EbwGj5WyuGKVo0b-97">
          <mxGeometry relative="1" as="geometry" />
        </mxCell>
        <mxCell id="8PTE7EbwGj5WyuGKVo0b-92" value="&lt;font style=&quot;font-size: 20px;&quot;&gt;w&lt;/font&gt;" style="edgeLabel;html=1;align=center;verticalAlign=middle;resizable=0;points=[];fontSize=12;" vertex="1" connectable="0" parent="8PTE7EbwGj5WyuGKVo0b-91">
          <mxGeometry x="-0.0833" y="3" relative="1" as="geometry">
            <mxPoint y="-17" as="offset" />
          </mxGeometry>
        </mxCell>
        <mxCell id="8PTE7EbwGj5WyuGKVo0b-93" value="q12" style="ellipse;whiteSpace=wrap;html=1;rounded=0;shadow=1;strokeColor=#666666;strokeWidth=1;fontSize=30;align=center;fillColor=#f5f5f5;" vertex="1" parent="1">
          <mxGeometry x="1600" y="230" width="80" height="80" as="geometry" />
        </mxCell>
        <mxCell id="8PTE7EbwGj5WyuGKVo0b-94" value="" style="edgeStyle=orthogonalEdgeStyle;rounded=0;orthogonalLoop=1;jettySize=auto;html=1;" edge="1" parent="1" source="8PTE7EbwGj5WyuGKVo0b-97" target="8PTE7EbwGj5WyuGKVo0b-113">
          <mxGeometry relative="1" as="geometry" />
        </mxCell>
        <mxCell id="8PTE7EbwGj5WyuGKVo0b-97" value="q13" style="ellipse;whiteSpace=wrap;html=1;rounded=0;shadow=1;strokeColor=#878787;strokeWidth=1;fontSize=30;align=center;fillColor=#FCFCFC;" vertex="1" parent="1">
          <mxGeometry x="1790" y="230" width="80" height="80" as="geometry" />
        </mxCell>
        <mxCell id="8PTE7EbwGj5WyuGKVo0b-98" value="" style="edgeStyle=none;curved=1;rounded=0;orthogonalLoop=1;jettySize=auto;html=1;fontSize=12;startSize=8;endSize=8;" edge="1" parent="1" source="8PTE7EbwGj5WyuGKVo0b-100" target="8PTE7EbwGj5WyuGKVo0b-102">
          <mxGeometry relative="1" as="geometry" />
        </mxCell>
        <mxCell id="8PTE7EbwGj5WyuGKVo0b-99" value="&lt;span style=&quot;font-size: 20px;&quot;&gt;x&lt;/span&gt;" style="edgeLabel;html=1;align=center;verticalAlign=middle;resizable=0;points=[];fontSize=12;" vertex="1" connectable="0" parent="8PTE7EbwGj5WyuGKVo0b-98">
          <mxGeometry x="-0.1667" relative="1" as="geometry">
            <mxPoint y="-20" as="offset" />
          </mxGeometry>
        </mxCell>
        <mxCell id="8PTE7EbwGj5WyuGKVo0b-100" value="q8" style="ellipse;whiteSpace=wrap;html=1;rounded=0;shadow=1;strokeColor=#666666;strokeWidth=1;fontSize=30;align=center;fillColor=#f5f5f5;" vertex="1" parent="1">
          <mxGeometry x="1600" y="820" width="80" height="80" as="geometry" />
        </mxCell>
        <mxCell id="8PTE7EbwGj5WyuGKVo0b-132" style="edgeStyle=orthogonalEdgeStyle;rounded=0;orthogonalLoop=1;jettySize=auto;html=1;entryX=0;entryY=0.5;entryDx=0;entryDy=0;" edge="1" parent="1" source="8PTE7EbwGj5WyuGKVo0b-102" target="8PTE7EbwGj5WyuGKVo0b-131">
          <mxGeometry relative="1" as="geometry" />
        </mxCell>
        <mxCell id="8PTE7EbwGj5WyuGKVo0b-102" value="q9" style="ellipse;whiteSpace=wrap;html=1;rounded=0;shadow=1;strokeColor=#666666;strokeWidth=1;fontSize=30;align=center;fillColor=#F0F0F0;" vertex="1" parent="1">
          <mxGeometry x="1790" y="820" width="80" height="80" as="geometry" />
        </mxCell>
        <mxCell id="8PTE7EbwGj5WyuGKVo0b-103" value="" style="edgeStyle=none;curved=1;rounded=0;orthogonalLoop=1;jettySize=auto;html=1;fontSize=12;startSize=8;endSize=8;" edge="1" parent="1" source="8PTE7EbwGj5WyuGKVo0b-105" target="8PTE7EbwGj5WyuGKVo0b-108">
          <mxGeometry relative="1" as="geometry" />
        </mxCell>
        <mxCell id="8PTE7EbwGj5WyuGKVo0b-104" value="&lt;font style=&quot;font-size: 20px;&quot;&gt;x&lt;/font&gt;" style="edgeLabel;html=1;align=center;verticalAlign=middle;resizable=0;points=[];fontSize=12;" vertex="1" connectable="0" parent="8PTE7EbwGj5WyuGKVo0b-103">
          <mxGeometry x="-0.0833" y="2" relative="1" as="geometry">
            <mxPoint y="-18" as="offset" />
          </mxGeometry>
        </mxCell>
        <mxCell id="8PTE7EbwGj5WyuGKVo0b-105" value="q4" style="ellipse;whiteSpace=wrap;html=1;rounded=0;shadow=1;strokeColor=#666666;strokeWidth=1;fontSize=30;align=center;fillColor=#f5f5f5;" vertex="1" parent="1">
          <mxGeometry x="1384.12" y="530" width="80" height="80" as="geometry" />
        </mxCell>
        <mxCell id="8PTE7EbwGj5WyuGKVo0b-106" value="" style="edgeStyle=none;curved=1;rounded=0;orthogonalLoop=1;jettySize=auto;html=1;fontSize=12;startSize=8;endSize=8;" edge="1" parent="1" source="8PTE7EbwGj5WyuGKVo0b-108" target="8PTE7EbwGj5WyuGKVo0b-112">
          <mxGeometry relative="1" as="geometry" />
        </mxCell>
        <mxCell id="8PTE7EbwGj5WyuGKVo0b-107" value="&lt;font style=&quot;font-size: 20px;&quot;&gt;w&lt;/font&gt;" style="edgeLabel;html=1;align=center;verticalAlign=middle;resizable=0;points=[];fontSize=12;" vertex="1" connectable="0" parent="8PTE7EbwGj5WyuGKVo0b-106">
          <mxGeometry x="-0.1667" relative="1" as="geometry">
            <mxPoint y="-20" as="offset" />
          </mxGeometry>
        </mxCell>
        <mxCell id="8PTE7EbwGj5WyuGKVo0b-108" value="q5" style="ellipse;whiteSpace=wrap;html=1;rounded=0;shadow=1;strokeColor=#666666;strokeWidth=1;fontSize=30;align=center;fillColor=#f5f5f5;" vertex="1" parent="1">
          <mxGeometry x="1600" y="529.5" width="80" height="80" as="geometry" />
        </mxCell>
        <mxCell id="8PTE7EbwGj5WyuGKVo0b-130" style="edgeStyle=orthogonalEdgeStyle;rounded=0;orthogonalLoop=1;jettySize=auto;html=1;entryX=0;entryY=0.5;entryDx=0;entryDy=0;" edge="1" parent="1" source="8PTE7EbwGj5WyuGKVo0b-112" target="8PTE7EbwGj5WyuGKVo0b-129">
          <mxGeometry relative="1" as="geometry" />
        </mxCell>
        <mxCell id="8PTE7EbwGj5WyuGKVo0b-112" value="q6" style="ellipse;whiteSpace=wrap;html=1;rounded=0;shadow=1;strokeColor=#666666;strokeWidth=1;fontSize=30;align=center;fillColor=#FFFFFF;" vertex="1" parent="1">
          <mxGeometry x="1790" y="530" width="80" height="80" as="geometry" />
        </mxCell>
        <mxCell id="8PTE7EbwGj5WyuGKVo0b-136" style="edgeStyle=orthogonalEdgeStyle;rounded=0;orthogonalLoop=1;jettySize=auto;html=1;entryX=0.5;entryY=0;entryDx=0;entryDy=0;" edge="1" parent="1" source="8PTE7EbwGj5WyuGKVo0b-113" target="8PTE7EbwGj5WyuGKVo0b-133">
          <mxGeometry relative="1" as="geometry" />
        </mxCell>
        <mxCell id="8PTE7EbwGj5WyuGKVo0b-113" value="q10" style="ellipse;whiteSpace=wrap;html=1;fontSize=30;fillColor=#FCFCFC;strokeColor=#878787;rounded=0;shadow=1;strokeWidth=1;" vertex="1" parent="1">
          <mxGeometry x="2000" y="230" width="80" height="80" as="geometry" />
        </mxCell>
        <mxCell id="8PTE7EbwGj5WyuGKVo0b-115" value="&lt;font style=&quot;font-size: 20px;&quot;&gt;y&lt;/font&gt;" style="edgeLabel;html=1;align=center;verticalAlign=middle;resizable=0;points=[];fontSize=12;rotation=0;" vertex="1" connectable="0" parent="1">
          <mxGeometry x="1330.0042857142857" y="550" as="geometry">
            <mxPoint x="-4" y="-4" as="offset" />
          </mxGeometry>
        </mxCell>
        <mxCell id="8PTE7EbwGj5WyuGKVo0b-116" value="&lt;font style=&quot;font-size: 20px;&quot;&gt;z&lt;/font&gt;" style="edgeLabel;html=1;align=center;verticalAlign=middle;resizable=0;points=[];fontSize=12;" vertex="1" connectable="0" parent="1">
          <mxGeometry x="1940.0042857142857" y="550" as="geometry" />
        </mxCell>
        <mxCell id="8PTE7EbwGj5WyuGKVo0b-117" value="&lt;span style=&quot;font-size: 20px;&quot;&gt;y&lt;/span&gt;" style="edgeLabel;html=1;align=center;verticalAlign=middle;resizable=0;points=[];fontSize=12;" vertex="1" connectable="0" parent="1">
          <mxGeometry x="1930.0033333333336" y="840" as="geometry" />
        </mxCell>
        <mxCell id="8PTE7EbwGj5WyuGKVo0b-121" value="&lt;font style=&quot;font-size: 20px;&quot;&gt;z&lt;/font&gt;" style="edgeLabel;html=1;align=center;verticalAlign=middle;resizable=0;points=[];fontSize=12;" vertex="1" connectable="0" parent="1">
          <mxGeometry x="1930" y="250" as="geometry">
            <mxPoint y="-2" as="offset" />
          </mxGeometry>
        </mxCell>
        <mxCell id="8PTE7EbwGj5WyuGKVo0b-126" style="edgeStyle=orthogonalEdgeStyle;rounded=0;orthogonalLoop=1;jettySize=auto;html=1;exitX=0.624;exitY=0;exitDx=0;exitDy=0;exitPerimeter=0;" edge="1" parent="1" source="8PTE7EbwGj5WyuGKVo0b-87">
          <mxGeometry relative="1" as="geometry">
            <mxPoint x="1180" y="489.5" as="sourcePoint" />
            <mxPoint x="1160" y="530" as="targetPoint" />
            <Array as="points">
              <mxPoint x="1180" y="500" />
              <mxPoint x="1160" y="500" />
            </Array>
          </mxGeometry>
        </mxCell>
        <mxCell id="8PTE7EbwGj5WyuGKVo0b-127" value="&lt;span style=&quot;color: rgba(0, 0, 0, 0); font-family: monospace; font-size: 0px; text-align: start;&quot;&gt;%3CmxGraphModel%3E%3Croot%3E%3CmxCell%20id%3D%220%22%2F%3E%3CmxCell%20id%3D%221%22%20parent%3D%220%22%2F%3E%3CmxCell%20id%3D%222%22%20style%3D%22edgeStyle%3Dnone%3Bcurved%3D1%3Brounded%3D0%3BorthogonalLoop%3D1%3BjettySize%3Dauto%3Bhtml%3D1%3BexitX%3D1%3BexitY%3D0.5%3BexitDx%3D0%3BexitDy%3D0%3BfontSize%3D12%3BstartSize%3D8%3BendSize%3D8%3B%22%20edge%3D%221%22%20source%3D%224%22%20parent%3D%221%22%3E%3CmxGeometry%20relative%3D%221%22%20as%3D%22geometry%22%3E%3CmxPoint%20x%3D%22576.12%22%20y%3D%22280.4117647058823%22%20as%3D%22targetPoint%22%2F%3E%3C%2FmxGeometry%3E%3C%2FmxCell%3E%3CmxCell%20id%3D%223%22%20value%3D%22%26lt%3Bfont%20style%3D%26quot%3Bfont-size%3A%2020px%3B%26quot%3B%26gt%3Bz%26lt%3B%2Ffont%26gt%3B%22%20style%3D%22edgeLabel%3Bhtml%3D1%3Balign%3Dcenter%3BverticalAlign%3Dmiddle%3Bresizable%3D0%3Bpoints%3D%5B%5D%3BfontSize%3D12%3B%22%20vertex%3D%221%22%20connectable%3D%220%22%20parent%3D%222%22%3E%3CmxGeometry%20x%3D%22-0.4769%22%20y%3D%223%22%20relative%3D%221%22%20as%3D%22geometry%22%3E%3CmxPoint%20x%3D%229%22%20y%3D%22-17%22%20as%3D%22offset%22%2F%3E%3C%2FmxGeometry%3E%3C%2FmxCell%3E%3CmxCell%20id%3D%224%22%20value%3D%22q1%22%20style%3D%22ellipse%3BwhiteSpace%3Dwrap%3Bhtml%3D1%3Brounded%3D0%3Bshadow%3D1%3BstrokeColor%3D%23666666%3BstrokeWidth%3D1%3BfontSize%3D30%3Balign%3Dcenter%3BfillColor%3D%23f5f5f5%3B%22%20vertex%3D%221%22%20parent%3D%221%22%3E%3CmxGeometry%20x%3D%22340%22%20y%3D%22240%22%20width%3D%2280%22%20height%3D%2280%22%20as%3D%22geometry%22%2F%3E%3C%2FmxCell%3E%3CmxCell%20id%3D%225%22%20value%3D%22%22%20style%3D%22edgeStyle%3Dnone%3BorthogonalLoop%3D1%3BjettySize%3Dauto%3Bhtml%3D1%3Brounded%3D0%3BfontSize%3D12%3BstartSize%3D8%3BendSize%3D8%3Bcurved%3D1%3BentryX%3D0%3BentryY%3D0.5%3BentryDx%3D0%3BentryDy%3D0%3B%22%20edge%3D%221%22%20target%3D%2211%22%20parent%3D%221%22%3E%3CmxGeometry%20width%3D%22140%22%20relative%3D%221%22%20as%3D%22geometry%22%3E%3CmxPoint%20y%3D%22580%22%20as%3D%22sourcePoint%22%2F%3E%3CmxPoint%20x%3D%2240%22%20y%3D%22580%22%20as%3D%22targetPoint%22%2F%3E%3CArray%20as%3D%22points%22%2F%3E%3C%2FmxGeometry%3E%3C%2FmxCell%3E%3CmxCell%20id%3D%226%22%20style%3D%22edgeStyle%3Dnone%3Bcurved%3D0%3Brounded%3D0%3BorthogonalLoop%3D1%3BjettySize%3Dauto%3Bhtml%3D1%3BentryX%3D0%3BentryY%3D0.5%3BentryDx%3D0%3BentryDy%3D0%3BfontSize%3D12%3BstartSize%3D8%3BendSize%3D8%3B%22%20edge%3D%221%22%20source%3D%2211%22%20target%3D%224%22%20parent%3D%221%22%3E%3CmxGeometry%20relative%3D%221%22%20as%3D%22geometry%22%3E%3CArray%20as%3D%22points%22%3E%3CmxPoint%20x%3D%22200%22%20y%3D%22580%22%2F%3E%3CmxPoint%20x%3D%22200%22%20y%3D%22280%22%2F%3E%3C%2FArray%3E%3C%2FmxGeometry%3E%3C%2FmxCell%3E%3CmxCell%20id%3D%227%22%20value%3D%22%26lt%3Bfont%20style%3D%26quot%3Bfont-size%3A%2020px%3B%26quot%3B%26gt%3Bw%26lt%3B%2Ffont%26gt%3B%22%20style%3D%22edgeLabel%3Bhtml%3D1%3Balign%3Dcenter%3BverticalAlign%3Dmiddle%3Bresizable%3D0%3Bpoints%3D%5B%5D%3BfontSize%3D12%3Brotation%3D0%3B%22%20vertex%3D%221%22%20connectable%3D%220%22%20parent%3D%226%22%3E%3CmxGeometry%20x%3D%220.7841%22%20y%3D%222%22%20relative%3D%221%22%20as%3D%22geometry%22%3E%3CmxPoint%20x%3D%22-16%22%20y%3D%22-18%22%20as%3D%22offset%22%2F%3E%3C%2FmxGeometry%3E%3C%2FmxCell%3E%3CmxCell%20id%3D%228%22%20style%3D%22edgeStyle%3Dnone%3Bcurved%3D0%3Brounded%3D0%3BorthogonalLoop%3D1%3BjettySize%3Dauto%3Bhtml%3D1%3BexitX%3D1%3BexitY%3D0.5%3BexitDx%3D0%3BexitDy%3D0%3BentryX%3D0%3BentryY%3D0.5%3BentryDx%3D0%3BentryDy%3D0%3BfontSize%3D12%3BstartSize%3D8%3BendSize%3D8%3B%22%20edge%3D%221%22%20source%3D%2211%22%20target%3D%2214%22%20parent%3D%221%22%3E%3CmxGeometry%20relative%3D%221%22%20as%3D%22geometry%22%3E%3CArray%20as%3D%22points%22%3E%3CmxPoint%20x%3D%22200%22%20y%3D%22580%22%2F%3E%3CmxPoint%20x%3D%22200%22%20y%3D%22870%22%2F%3E%3C%2FArray%3E%3C%2FmxGeometry%3E%3C%2FmxCell%3E%3CmxCell%20id%3D%229%22%20value%3D%22%26lt%3Bspan%20style%3D%26quot%3Bfont-size%3A%2020px%3B%26quot%3B%26gt%3Bz%26lt%3B%2Fspan%26gt%3B%22%20style%3D%22edgeLabel%3Bhtml%3D1%3Balign%3Dcenter%3BverticalAlign%3Dmiddle%3Bresizable%3D0%3Bpoints%3D%5B%5D%3BfontSize%3D12%3B%22%20vertex%3D%221%22%20connectable%3D%220%22%20parent%3D%228%22%3E%3CmxGeometry%20x%3D%220.7841%22%20relative%3D%221%22%20as%3D%22geometry%22%3E%3CmxPoint%20y%3D%22-20%22%20as%3D%22offset%22%2F%3E%3C%2FmxGeometry%3E%3C%2FmxCell%3E%3CmxCell%20id%3D%2210%22%20style%3D%22edgeStyle%3DorthogonalEdgeStyle%3Brounded%3D0%3BorthogonalLoop%3D1%3BjettySize%3Dauto%3Bhtml%3D1%3BentryX%3D0%3BentryY%3D0.5%3BentryDx%3D0%3BentryDy%3D0%3B%22%20edge%3D%221%22%20source%3D%2211%22%20target%3D%2229%22%20parent%3D%221%22%3E%3CmxGeometry%20relative%3D%221%22%20as%3D%22geometry%22%2F%3E%3C%2FmxCell%3E%3CmxCell%20id%3D%2211%22%20value%3D%22q0%22%20style%3D%22ellipse%3BwhiteSpace%3Dwrap%3Bhtml%3D1%3Brounded%3D0%3Bshadow%3D1%3BstrokeColor%3D%23666666%3BstrokeWidth%3D1%3BfontSize%3D30%3Balign%3Dcenter%3BfillColor%3D%23f5f5f5%3B%22%20vertex%3D%221%22%20parent%3D%221%22%3E%3CmxGeometry%20x%3D%2260%22%20y%3D%22540%22%20width%3D%2280%22%20height%3D%2280%22%20as%3D%22geometry%22%2F%3E%3C%2FmxCell%3E%3CmxCell%20id%3D%2212%22%20value%3D%22%22%20style%3D%22edgeStyle%3Dnone%3Bcurved%3D1%3Brounded%3D0%3BorthogonalLoop%3D1%3BjettySize%3Dauto%3Bhtml%3D1%3BfontSize%3D12%3BstartSize%3D8%3BendSize%3D8%3B%22%20edge%3D%221%22%20source%3D%2214%22%20target%3D%2224%22%20parent%3D%221%22%3E%3CmxGeometry%20relative%3D%221%22%20as%3D%22geometry%22%2F%3E%3C%2FmxCell%3E%3CmxCell%20id%3D%2213%22%20value%3D%22%26lt%3Bfont%20style%3D%26quot%3Bfont-size%3A%2020px%3B%26quot%3B%26gt%3Bw%26lt%3B%2Ffont%26gt%3B%22%20style%3D%22edgeLabel%3Bhtml%3D1%3Balign%3Dcenter%3BverticalAlign%3Dmiddle%3Bresizable%3D0%3Bpoints%3D%5B%5D%3BfontSize%3D12%3B%22%20vertex%3D%221%22%20connectable%3D%220%22%20parent%3D%2212%22%3E%3CmxGeometry%20x%3D%22-0.0833%22%20y%3D%222%22%20relative%3D%221%22%20as%3D%22geometry%22%3E%3CmxPoint%20y%3D%22-18%22%20as%3D%22offset%22%2F%3E%3C%2FmxGeometry%3E%3C%2FmxCell%3E%3CmxCell%20id%3D%2214%22%20value%3D%22q7%22%20style%3D%22ellipse%3BwhiteSpace%3Dwrap%3Bhtml%3D1%3Brounded%3D0%3Bshadow%3D1%3BstrokeColor%3D%23666666%3BstrokeWidth%3D1%3BfontSize%3D30%3Balign%3Dcenter%3BfillColor%3D%23f5f5f5%3B%22%20vertex%3D%221%22%20parent%3D%221%22%3E%3CmxGeometry%20x%3D%22314.12%22%20y%3D%22830%22%20width%3D%2280%22%20height%3D%2280%22%20as%3D%22geometry%22%2F%3E%3C%2FmxCell%3E%3CmxCell%20id%3D%2215%22%20style%3D%22edgeStyle%3Dnone%3Bcurved%3D1%3Brounded%3D0%3BorthogonalLoop%3D1%3BjettySize%3Dauto%3Bhtml%3D1%3BentryX%3D0%3BentryY%3D0.5%3BentryDx%3D0%3BentryDy%3D0%3BfontSize%3D12%3BstartSize%3D8%3BendSize%3D8%3B%22%20edge%3D%221%22%20source%3D%2217%22%20target%3D%2221%22%20parent%3D%221%22%3E%3CmxGeometry%20relative%3D%221%22%20as%3D%22geometry%22%2F%3E%3C%2FmxCell%3E%3CmxCell%20id%3D%2216%22%20value%3D%22%26lt%3Bfont%20style%3D%26quot%3Bfont-size%3A%2020px%3B%26quot%3B%26gt%3Bw%26lt%3B%2Ffont%26gt%3B%22%20style%3D%22edgeLabel%3Bhtml%3D1%3Balign%3Dcenter%3BverticalAlign%3Dmiddle%3Bresizable%3D0%3Bpoints%3D%5B%5D%3BfontSize%3D12%3B%22%20vertex%3D%221%22%20connectable%3D%220%22%20parent%3D%2215%22%3E%3CmxGeometry%20x%3D%22-0.0833%22%20y%3D%223%22%20relative%3D%221%22%20as%3D%22geometry%22%3E%3CmxPoint%20y%3D%22-17%22%20as%3D%22offset%22%2F%3E%3C%2FmxGeometry%3E%3C%2FmxCell%3E%3CmxCell%20id%3D%2217%22%20value%3D%22q2%22%20style%3D%22ellipse%3BwhiteSpace%3Dwrap%3Bhtml%3D1%3Brounded%3D0%3Bshadow%3D1%3BstrokeColor%3D%23666666%3BstrokeWidth%3D1%3BfontSize%3D30%3Balign%3Dcenter%3BfillColor%3D%23f5f5f5%3B%22%20vertex%3D%221%22%20parent%3D%221%22%3E%3CmxGeometry%20x%3D%22530%22%20y%3D%22240%22%20width%3D%2280%22%20height%3D%2280%22%20as%3D%22geometry%22%2F%3E%3C%2FmxCell%3E%3CmxCell%20id%3D%2218%22%20value%3D%22%22%20style%3D%22edgeStyle%3DorthogonalEdgeStyle%3Brounded%3D0%3BorthogonalLoop%3D1%3BjettySize%3Dauto%3Bhtml%3D1%3B%22%20edge%3D%221%22%20source%3D%2221%22%20target%3D%2237%22%20parent%3D%221%22%3E%3CmxGeometry%20relative%3D%221%22%20as%3D%22geometry%22%2F%3E%3C%2FmxCell%3E%3CmxCell%20id%3D%2219%22%20style%3D%22edgeStyle%3DorthogonalEdgeStyle%3Brounded%3D0%3BorthogonalLoop%3D1%3BjettySize%3Dauto%3Bhtml%3D1%3BentryX%3D0%3BentryY%3D0.5%3BentryDx%3D0%3BentryDy%3D0%3B%22%20edge%3D%221%22%20source%3D%2221%22%20target%3D%2242%22%20parent%3D%221%22%3E%3CmxGeometry%20relative%3D%221%22%20as%3D%22geometry%22%3E%3CArray%20as%3D%22points%22%3E%3CmxPoint%20x%3D%22760%22%20y%3D%2290%22%2F%3E%3C%2FArray%3E%3C%2FmxGeometry%3E%3C%2FmxCell%3E%3CmxCell%20id%3D%2220%22%20value%3D%22%22%20style%3D%22edgeStyle%3DorthogonalEdgeStyle%3Brounded%3D0%3BorthogonalLoop%3D1%3BjettySize%3Dauto%3Bhtml%3D1%3B%22%20edge%3D%221%22%20source%3D%2221%22%20target%3D%2243%22%20parent%3D%221%22%3E%3CmxGeometry%20relative%3D%221%22%20as%3D%22geometry%22%3E%3CArray%20as%3D%22points%22%3E%3CmxPoint%20x%3D%22760%22%20y%3D%2290%22%2F%3E%3C%2FArray%3E%3C%2FmxGeometry%3E%3C%2FmxCell%3E%3CmxCell%20id%3D%2221%22%20value%3D%22q3%22%20style%3D%22ellipse%3BwhiteSpace%3Dwrap%3Bhtml%3D1%3Brounded%3D0%3Bshadow%3D1%3BstrokeColor%3D%23878787%3BstrokeWidth%3D1%3BfontSize%3D30%3Balign%3Dcenter%3BfillColor%3D%23FCFCFC%3B%22%20vertex%3D%221%22%20parent%3D%221%22%3E%3CmxGeometry%20x%3D%22720%22%20y%3D%22240%22%20width%3D%2280%22%20height%3D%2280%22%20as%3D%22geometry%22%2F%3E%3C%2FmxCell%3E%3CmxCell%20id%3D%2222%22%20value%3D%22%22%20style%3D%22edgeStyle%3Dnone%3Bcurved%3D1%3Brounded%3D0%3BorthogonalLoop%3D1%3BjettySize%3Dauto%3Bhtml%3D1%3BfontSize%3D12%3BstartSize%3D8%3BendSize%3D8%3B%22%20edge%3D%221%22%20source%3D%2224%22%20target%3D%2226%22%20parent%3D%221%22%3E%3CmxGeometry%20relative%3D%221%22%20as%3D%22geometry%22%2F%3E%3C%2FmxCell%3E%3CmxCell%20id%3D%2223%22%20value%3D%22%26lt%3Bspan%20style%3D%26quot%3Bfont-size%3A%2020px%3B%26quot%3B%26gt%3Bx%26lt%3B%2Fspan%26gt%3B%22%20style%3D%22edgeLabel%3Bhtml%3D1%3Balign%3Dcenter%3BverticalAlign%3Dmiddle%3Bresizable%3D0%3Bpoints%3D%5B%5D%3BfontSize%3D12%3B%22%20vertex%3D%221%22%20connectable%3D%220%22%20parent%3D%2222%22%3E%3CmxGeometry%20x%3D%22-0.1667%22%20relative%3D%221%22%20as%3D%22geometry%22%3E%3CmxPoint%20y%3D%22-20%22%20as%3D%22offset%22%2F%3E%3C%2FmxGeometry%3E%3C%2FmxCell%3E%3CmxCell%20id%3D%2224%22%20value%3D%22q8%22%20style%3D%22ellipse%3BwhiteSpace%3Dwrap%3Bhtml%3D1%3Brounded%3D0%3Bshadow%3D1%3BstrokeColor%3D%23666666%3BstrokeWidth%3D1%3BfontSize%3D30%3Balign%3Dcenter%3BfillColor%3D%23f5f5f5%3B%22%20vertex%3D%221%22%20parent%3D%221%22%3E%3CmxGeometry%20x%3D%22530%22%20y%3D%22830%22%20width%3D%2280%22%20height%3D%2280%22%20as%3D%22geometry%22%2F%3E%3C%2FmxCell%3E%3CmxCell%20id%3D%2225%22%20style%3D%22edgeStyle%3DorthogonalEdgeStyle%3Brounded%3D0%3BorthogonalLoop%3D1%3BjettySize%3Dauto%3Bhtml%3D1%3BentryX%3D0.5%3BentryY%3D1%3BentryDx%3D0%3BentryDy%3D0%3B%22%20edge%3D%221%22%20source%3D%2226%22%20target%3D%2237%22%20parent%3D%221%22%3E%3CmxGeometry%20relative%3D%221%22%20as%3D%22geometry%22%2F%3E%3C%2FmxCell%3E%3CmxCell%20id%3D%2226%22%20value%3D%22q9%22%20style%3D%22ellipse%3BwhiteSpace%3Dwrap%3Bhtml%3D1%3Brounded%3D0%3Bshadow%3D1%3BstrokeColor%3D%23666666%3BstrokeWidth%3D1%3BfontSize%3D30%3Balign%3Dcenter%3BfillColor%3D%23F0F0F0%3B%22%20vertex%3D%221%22%20parent%3D%221%22%3E%3CmxGeometry%20x%3D%22720%22%20y%3D%22830%22%20width%3D%2280%22%20height%3D%2280%22%20as%3D%22geometry%22%2F%3E%3C%2FmxCell%3E%3CmxCell%20id%3D%2227%22%20value%3D%22%22%20style%3D%22edgeStyle%3Dnone%3Bcurved%3D1%3Brounded%3D0%3BorthogonalLoop%3D1%3BjettySize%3Dauto%3Bhtml%3D1%3BfontSize%3D12%3BstartSize%3D8%3BendSize%3D8%3B%22%20edge%3D%221%22%20source%3D%2229%22%20target%3D%2232%22%20parent%3D%221%22%3E%3CmxGeometry%20relative%3D%221%22%20as%3D%22geometry%22%2F%3E%3C%2FmxCell%3E%3CmxCell%20id%3D%2228%22%20value%3D%22%26lt%3Bfont%20style%3D%26quot%3Bfont-size%3A%2020px%3B%26quot%3B%26gt%3Bx%26lt%3B%2Ffont%26gt%3B%22%20style%3D%22edgeLabel%3Bhtml%3D1%3Balign%3Dcenter%3BverticalAlign%3Dmiddle%3Bresizable%3D0%3Bpoints%3D%5B%5D%3BfontSize%3D12%3B%22%20vertex%3D%221%22%20connectable%3D%220%22%20parent%3D%2227%22%3E%3CmxGeometry%20x%3D%22-0.0833%22%20y%3D%222%22%20relative%3D%221%22%20as%3D%22geometry%22%3E%3CmxPoint%20y%3D%22-18%22%20as%3D%22offset%22%2F%3E%3C%2FmxGeometry%3E%3C%2FmxCell%3E%3CmxCell%20id%3D%2229%22%20value%3D%22q4%22%20style%3D%22ellipse%3BwhiteSpace%3Dwrap%3Bhtml%3D1%3Brounded%3D0%3Bshadow%3D1%3BstrokeColor%3D%23666666%3BstrokeWidth%3D1%3BfontSize%3D30%3Balign%3Dcenter%3BfillColor%3D%23f5f5f5%3B%22%20vertex%3D%221%22%20parent%3D%221%22%3E%3CmxGeometry%20x%3D%22314.12%22%20y%3D%22540%22%20width%3D%2280%22%20height%3D%2280%22%20as%3D%22geometry%22%2F%3E%3C%2FmxCell%3E%3CmxCell%20id%3D%2230%22%20value%3D%22%22%20style%3D%22edgeStyle%3Dnone%3Bcurved%3D1%3Brounded%3D0%3BorthogonalLoop%3D1%3BjettySize%3Dauto%3Bhtml%3D1%3BfontSize%3D12%3BstartSize%3D8%3BendSize%3D8%3B%22%20edge%3D%221%22%20source%3D%2232%22%20target%3D%2236%22%20parent%3D%221%22%3E%3CmxGeometry%20relative%3D%221%22%20as%3D%22geometry%22%2F%3E%3C%2FmxCell%3E%3CmxCell%20id%3D%2231%22%20value%3D%22%26lt%3Bfont%20style%3D%26quot%3Bfont-size%3A%2020px%3B%26quot%3B%26gt%3Bw%26lt%3B%2Ffont%26gt%3B%22%20style%3D%22edgeLabel%3Bhtml%3D1%3Balign%3Dcenter%3BverticalAlign%3Dmiddle%3Bresizable%3D0%3Bpoints%3D%5B%5D%3BfontSize%3D12%3B%22%20vertex%3D%221%22%20connectable%3D%220%22%20parent%3D%2230%22%3E%3CmxGeometry%20x%3D%22-0.1667%22%20relative%3D%221%22%20as%3D%22geometry%22%3E%3CmxPoint%20y%3D%22-20%22%20as%3D%22offset%22%2F%3E%3C%2FmxGeometry%3E%3C%2FmxCell%3E%3CmxCell%20id%3D%2232%22%20value%3D%22q5%22%20style%3D%22ellipse%3BwhiteSpace%3Dwrap%3Bhtml%3D1%3Brounded%3D0%3Bshadow%3D1%3BstrokeColor%3D%23666666%3BstrokeWidth%3D1%3BfontSize%3D30%3Balign%3Dcenter%3BfillColor%3D%23f5f5f5%3B%22%20vertex%3D%221%22%20parent%3D%221%22%3E%3CmxGeometry%20x%3D%22530%22%20y%3D%22539.5%22%20width%3D%2280%22%20height%3D%2280%22%20as%3D%22geometry%22%2F%3E%3C%2FmxCell%3E%3CmxCell%20id%3D%2233%22%20style%3D%22edgeStyle%3DorthogonalEdgeStyle%3Brounded%3D0%3BorthogonalLoop%3D1%3BjettySize%3Dauto%3Bhtml%3D1%3BentryX%3D0%3BentryY%3D0.5%3BentryDx%3D0%3BentryDy%3D0%3B%22%20edge%3D%221%22%20source%3D%2236%22%20target%3D%2237%22%20parent%3D%221%22%3E%3CmxGeometry%20relative%3D%221%22%20as%3D%22geometry%22%2F%3E%3C%2FmxCell%3E%3CmxCell%20id%3D%2234%22%20value%3D%22%22%20style%3D%22edgeStyle%3DorthogonalEdgeStyle%3Brounded%3D0%3BorthogonalLoop%3D1%3BjettySize%3Dauto%3Bhtml%3D1%3B%22%20edge%3D%221%22%20source%3D%2236%22%20target%3D%2246%22%20parent%3D%221%22%3E%3CmxGeometry%20relative%3D%221%22%20as%3D%22geometry%22%3E%3CArray%20as%3D%22points%22%3E%3CmxPoint%20x%3D%22760%22%20y%3D%22440%22%2F%3E%3C%2FArray%3E%3C%2FmxGeometry%3E%3C%2FmxCell%3E%3CmxCell%20id%3D%2235%22%20style%3D%22edgeStyle%3DorthogonalEdgeStyle%3Brounded%3D0%3BorthogonalLoop%3D1%3BjettySize%3Dauto%3Bhtml%3D1%3BentryX%3D0%3BentryY%3D0.5%3BentryDx%3D0%3BentryDy%3D0%3B%22%20edge%3D%221%22%20source%3D%2236%22%20target%3D%2247%22%20parent%3D%221%22%3E%3CmxGeometry%20relative%3D%221%22%20as%3D%22geometry%22%3E%3CArray%20as%3D%22points%22%3E%3CmxPoint%20x%3D%22760%22%20y%3D%22440%22%2F%3E%3C%2FArray%3E%3C%2FmxGeometry%3E%3C%2FmxCell%3E%3CmxCell%20id%3D%2236%22%20value%3D%22q6%22%20style%3D%22ellipse%3BwhiteSpace%3Dwrap%3Bhtml%3D1%3Brounded%3D0%3Bshadow%3D1%3BstrokeColor%3D%23666666%3BstrokeWidth%3D1%3BfontSize%3D30%3Balign%3Dcenter%3BfillColor%3D%23FFFFFF%3B%22%20vertex%3D%221%22%20parent%3D%221%22%3E%3CmxGeometry%20x%3D%22720%22%20y%3D%22540%22%20width%3D%2280%22%20height%3D%2280%22%20as%3D%22geometry%22%2F%3E%3C%2FmxCell%3E%3CmxCell%20id%3D%2237%22%20value%3D%22q10%22%20style%3D%22ellipse%3BwhiteSpace%3Dwrap%3Bhtml%3D1%3BfontSize%3D30%3BfillColor%3D%23FCFCFC%3BstrokeColor%3D%23878787%3Brounded%3D0%3Bshadow%3D1%3BstrokeWidth%3D1%3B%22%20vertex%3D%221%22%20parent%3D%221%22%3E%3CmxGeometry%20x%3D%22910%22%20y%3D%22540%22%20width%3D%2280%22%20height%3D%2280%22%20as%3D%22geometry%22%2F%3E%3C%2FmxCell%3E%3CmxCell%20id%3D%2238%22%20value%3D%22%26lt%3Bfont%20style%3D%26quot%3Bfont-size%3A%2020px%3B%26quot%3B%26gt%3Bz%26lt%3B%2Ffont%26gt%3B%22%20style%3D%22edgeLabel%3Bhtml%3D1%3Balign%3Dcenter%3BverticalAlign%3Dmiddle%3Bresizable%3D0%3Bpoints%3D%5B%5D%3BfontSize%3D12%3B%22%20vertex%3D%221%22%20connectable%3D%220%22%20parent%3D%221%22%3E%3CmxGeometry%20x%3D%22720%22%20y%3D%2270%22%20as%3D%22geometry%22%3E%3CmxPoint%20y%3D%22-2%22%20as%3D%22offset%22%2F%3E%3C%2FmxGeometry%3E%3C%2FmxCell%3E%3CmxCell%20id%3D%2239%22%20value%3D%22%26lt%3Bfont%20style%3D%26quot%3Bfont-size%3A%2020px%3B%26quot%3B%26gt%3By%26lt%3B%2Ffont%26gt%3B%22%20style%3D%22edgeLabel%3Bhtml%3D1%3Balign%3Dcenter%3BverticalAlign%3Dmiddle%3Bresizable%3D0%3Bpoints%3D%5B%5D%3BfontSize%3D12%3Brotation%3D0%3B%22%20vertex%3D%221%22%20connectable%3D%220%22%20parent%3D%221%22%3E%3CmxGeometry%20x%3D%22260.0042857142858%22%20y%3D%22560%22%20as%3D%22geometry%22%3E%3CmxPoint%20x%3D%22-4%22%20y%3D%22-4%22%20as%3D%22offset%22%2F%3E%3C%2FmxGeometry%3E%3C%2FmxCell%3E%3CmxCell%20id%3D%2240%22%20value%3D%22%26lt%3Bfont%20style%3D%26quot%3Bfont-size%3A%2020px%3B%26quot%3B%26gt%3Bz%26lt%3B%2Ffont%26gt%3B%22%20style%3D%22edgeLabel%3Bhtml%3D1%3Balign%3Dcenter%3BverticalAlign%3Dmiddle%3Bresizable%3D0%3Bpoints%3D%5B%5D%3BfontSize%3D12%3B%22%20vertex%3D%221%22%20connectable%3D%220%22%20parent%3D%221%22%3E%3CmxGeometry%20x%3D%22860.0042857142857%22%20y%3D%22560%22%20as%3D%22geometry%22%2F%3E%3C%2FmxCell%3E%3CmxCell%20id%3D%2241%22%20value%3D%22%26lt%3Bspan%20style%3D%26quot%3Bfont-size%3A%2020px%3B%26quot%3B%26gt%3By%26lt%3B%2Fspan%26gt%3B%22%20style%3D%22edgeLabel%3Bhtml%3D1%3Balign%3Dcenter%3BverticalAlign%3Dmiddle%3Bresizable%3D0%3Bpoints%3D%5B%5D%3BfontSize%3D12%3B%22%20vertex%3D%221%22%20connectable%3D%220%22%20parent%3D%221%22%3E%3CmxGeometry%20x%3D%22860.0033333333334%22%20y%3D%22850%22%20as%3D%22geometry%22%2F%3E%3C%2FmxCell%3E%3CmxCell%20id%3D%2242%22%20value%3D%22q19%22%20style%3D%22ellipse%3BwhiteSpace%3Dwrap%3Bhtml%3D1%3Brounded%3D0%3Bshadow%3D1%3BstrokeColor%3D%23878787%3BstrokeWidth%3D1%3BfontSize%3D30%3Balign%3Dcenter%3BfillColor%3D%23FCFCFC%3B%22%20vertex%3D%221%22%20parent%3D%221%22%3E%3CmxGeometry%20x%3D%22850%22%20y%3D%2250%22%20width%3D%2280%22%20height%3D%2280%22%20as%3D%22geometry%22%2F%3E%3C%2FmxCell%3E%3CmxCell%20id%3D%2243%22%20value%3D%22q12%22%20style%3D%22ellipse%3BwhiteSpace%3Dwrap%3Bhtml%3D1%3BfontSize%3D30%3BfillColor%3D%23FCFCFC%3BstrokeColor%3D%23878787%3Brounded%3D0%3Bshadow%3D1%3BstrokeWidth%3D1%3B%22%20vertex%3D%221%22%20parent%3D%221%22%3E%3CmxGeometry%20x%3D%22600%22%20y%3D%2250%22%20width%3D%2280%22%20height%3D%2280%22%20as%3D%22geometry%22%2F%3E%3C%2FmxCell%3E%3CmxCell%20id%3D%2244%22%20value%3D%22%26lt%3Bfont%20style%3D%26quot%3Bfont-size%3A%2020px%3B%26quot%3B%26gt%3Bz%26lt%3B%2Ffont%26gt%3B%22%20style%3D%22edgeLabel%3Bhtml%3D1%3Balign%3Dcenter%3BverticalAlign%3Dmiddle%3Bresizable%3D0%3Bpoints%3D%5B%5D%3BfontSize%3D12%3B%22%20vertex%3D%221%22%20connectable%3D%220%22%20parent%3D%221%22%3E%3CmxGeometry%20x%3D%22800%22%20y%3D%2270%22%20as%3D%22geometry%22%3E%3CmxPoint%20y%3D%22-2%22%20as%3D%22offset%22%2F%3E%3C%2FmxGeometry%3E%3C%2FmxCell%3E%3CmxCell%20id%3D%2245%22%20value%3D%22%26lt%3Bfont%20style%3D%26quot%3Bfont-size%3A%2020px%3B%26quot%3B%26gt%3Bz%26lt%3B%2Ffont%26gt%3B%22%20style%3D%22edgeLabel%3Bhtml%3D1%3Balign%3Dcenter%3BverticalAlign%3Dmiddle%3Bresizable%3D0%3Bpoints%3D%5B%5D%3BfontSize%3D12%3B%22%20vertex%3D%221%22%20connectable%3D%220%22%20parent%3D%221%22%3E%3CmxGeometry%20x%3D%22880%22%20y%3D%22280%22%20as%3D%22geometry%22%3E%3CmxPoint%20y%3D%22-2%22%20as%3D%22offset%22%2F%3E%3C%2FmxGeometry%3E%3C%2FmxCell%3E%3CmxCell%20id%3D%2246%22%20value%3D%22q12%22%20style%3D%22ellipse%3BwhiteSpace%3Dwrap%3Bhtml%3D1%3BfontSize%3D30%3BfillColor%3D%23FFFFFF%3BstrokeColor%3D%23666666%3Brounded%3D0%3Bshadow%3D1%3BstrokeWidth%3D1%3B%22%20vertex%3D%221%22%20parent%3D%221%22%3E%3CmxGeometry%20x%3D%22590%22%20y%3D%22400%22%20width%3D%2280%22%20height%3D%2280%22%20as%3D%22geometry%22%2F%3E%3C%2FmxCell%3E%3CmxCell%20id%3D%2247%22%20value%3D%22q19%22%20style%3D%22ellipse%3BwhiteSpace%3Dwrap%3Bhtml%3D1%3BfontSize%3D30%3BfillColor%3D%23FFFFFF%3BstrokeColor%3D%23666666%3Brounded%3D0%3Bshadow%3D1%3BstrokeWidth%3D1%3B%22%20vertex%3D%221%22%20parent%3D%221%22%3E%3CmxGeometry%20x%3D%22830%22%20y%3D%22400%22%20width%3D%2280%22%20height%3D%2280%22%20as%3D%22geometry%22%2F%3E%3C%2FmxCell%3E%3CmxCell%20id%3D%2248%22%20value%3D%22%26lt%3Bfont%20style%3D%26quot%3Bfont-size%3A%2020px%3B%26quot%3B%26gt%3Bz%26lt%3B%2Ffont%26gt%3B%22%20style%3D%22edgeLabel%3Bhtml%3D1%3Balign%3Dcenter%3BverticalAlign%3Dmiddle%3Bresizable%3D0%3Bpoints%3D%5B%5D%3BfontSize%3D12%3B%22%20vertex%3D%221%22%20connectable%3D%220%22%20parent%3D%221%22%3E%3CmxGeometry%20x%3D%22710%22%20y%3D%22420%22%20as%3D%22geometry%22%3E%3CmxPoint%20y%3D%22-2%22%20as%3D%22offset%22%2F%3E%3C%2FmxGeometry%3E%3C%2FmxCell%3E%3CmxCell%20id%3D%2249%22%20value%3D%22%26lt%3Bfont%20style%3D%26quot%3Bfont-size%3A%2020px%3B%26quot%3B%26gt%3Bz%26lt%3B%2Ffont%26gt%3B%22%20style%3D%22edgeLabel%3Bhtml%3D1%3Balign%3Dcenter%3BverticalAlign%3Dmiddle%3Bresizable%3D0%3Bpoints%3D%5B%5D%3BfontSize%3D12%3B%22%20vertex%3D%221%22%20connectable%3D%220%22%20parent%3D%221%22%3E%3CmxGeometry%20x%3D%22800%22%20y%3D%22420%22%20as%3D%22geometry%22%3E%3CmxPoint%20y%3D%22-2%22%20as%3D%22offset%22%2F%3E%3C%2FmxGeometry%3E%3C%2FmxCell%3E%3C%2Froot%3E%3C%2FmxGraphModel%3E&lt;/span&gt;" style="text;html=1;align=center;verticalAlign=middle;resizable=0;points=[];autosize=1;strokeColor=none;fillColor=none;" vertex="1" parent="1">
          <mxGeometry x="1140" y="458" width="20" height="30" as="geometry" />
        </mxCell>
        <mxCell id="8PTE7EbwGj5WyuGKVo0b-128" value="&lt;font style=&quot;font-size: 20px;&quot;&gt;w, x, y, z&lt;/font&gt;" style="edgeLabel;html=1;align=center;verticalAlign=middle;resizable=0;points=[];fontSize=12;rotation=0;" vertex="1" connectable="0" parent="1">
          <mxGeometry x="1169.9957894736842" y="480" as="geometry" />
        </mxCell>
        <mxCell id="8PTE7EbwGj5WyuGKVo0b-135" style="edgeStyle=orthogonalEdgeStyle;rounded=0;orthogonalLoop=1;jettySize=auto;html=1;entryX=0;entryY=0.5;entryDx=0;entryDy=0;" edge="1" parent="1" source="8PTE7EbwGj5WyuGKVo0b-129" target="8PTE7EbwGj5WyuGKVo0b-133">
          <mxGeometry relative="1" as="geometry" />
        </mxCell>
        <mxCell id="8PTE7EbwGj5WyuGKVo0b-129" value="q6" style="ellipse;whiteSpace=wrap;html=1;rounded=0;shadow=1;strokeColor=#666666;strokeWidth=1;fontSize=30;align=center;fillColor=#FFFFFF;" vertex="1" parent="1">
          <mxGeometry x="1990" y="529.5" width="80" height="80" as="geometry" />
        </mxCell>
        <mxCell id="8PTE7EbwGj5WyuGKVo0b-134" style="edgeStyle=orthogonalEdgeStyle;rounded=0;orthogonalLoop=1;jettySize=auto;html=1;entryX=0.5;entryY=1;entryDx=0;entryDy=0;" edge="1" parent="1" source="8PTE7EbwGj5WyuGKVo0b-131" target="8PTE7EbwGj5WyuGKVo0b-133">
          <mxGeometry relative="1" as="geometry" />
        </mxCell>
        <mxCell id="8PTE7EbwGj5WyuGKVo0b-131" value="q6" style="ellipse;whiteSpace=wrap;html=1;rounded=0;shadow=1;strokeColor=#666666;strokeWidth=1;fontSize=30;align=center;fillColor=#FFFFFF;" vertex="1" parent="1">
          <mxGeometry x="2020" y="820" width="80" height="80" as="geometry" />
        </mxCell>
        <mxCell id="8PTE7EbwGj5WyuGKVo0b-133" value="q6" style="ellipse;whiteSpace=wrap;html=1;rounded=0;shadow=1;strokeColor=#666666;strokeWidth=1;fontSize=30;align=center;fillColor=#FFFFFF;" vertex="1" parent="1">
          <mxGeometry x="2250" y="530" width="80" height="80" as="geometry" />
        </mxCell>
      </root>
    </mxGraphModel>
  </diagram>
</mxfile>
